<mxfile host="app.diagrams.net" modified="2021-12-11T15:54:34.821Z" agent="5.0 (Windows NT 10.0; Win64; x64) AppleWebKit/537.36 (KHTML, like Gecko) Chrome/96.0.4664.93 Safari/537.36" etag="bmOKRfEpVP_ObD-62uFi" version="15.9.4" type="github">
  <diagram id="DH3QNiOya1cfcgPAZ-Pr" name="Page-1">
    <mxGraphModel dx="1887" dy="1060" grid="1" gridSize="10" guides="1" tooltips="1" connect="1" arrows="1" fold="1" page="1" pageScale="1" pageWidth="1100" pageHeight="850" math="0" shadow="0">
      <root>
        <mxCell id="0" />
        <mxCell id="1" parent="0" />
        <mxCell id="Mb1Wl-EeVpBNZaoq5JLc-1" value="" style="rounded=1;whiteSpace=wrap;html=1;" vertex="1" parent="1">
          <mxGeometry x="100" y="100" width="420" height="400" as="geometry" />
        </mxCell>
        <mxCell id="Mb1Wl-EeVpBNZaoq5JLc-2" value="&lt;p style=&quot;line-height: 10; font-size: 20px;&quot;&gt;User&lt;/p&gt;" style="text;html=1;strokeColor=none;fillColor=none;align=center;verticalAlign=middle;whiteSpace=wrap;rounded=0;strokeWidth=2;sketch=0;shadow=0;fontStyle=1;fontSize=20;" vertex="1" parent="1">
          <mxGeometry x="270" y="110" width="85" height="40" as="geometry" />
        </mxCell>
        <mxCell id="Mb1Wl-EeVpBNZaoq5JLc-4" value="" style="endArrow=none;html=1;rounded=0;fontSize=18;entryX=1;entryY=0.152;entryDx=0;entryDy=0;exitX=0;exitY=0.25;exitDx=0;exitDy=0;entryPerimeter=0;" edge="1" parent="1" source="Mb1Wl-EeVpBNZaoq5JLc-1" target="Mb1Wl-EeVpBNZaoq5JLc-1">
          <mxGeometry width="50" height="50" relative="1" as="geometry">
            <mxPoint x="180" y="210" as="sourcePoint" />
            <mxPoint x="230" y="160" as="targetPoint" />
            <Array as="points">
              <mxPoint x="100" y="160" />
            </Array>
          </mxGeometry>
        </mxCell>
        <mxCell id="Mb1Wl-EeVpBNZaoq5JLc-5" value="" style="endArrow=none;html=1;rounded=0;fontSize=20;exitX=0;exitY=0.25;exitDx=0;exitDy=0;entryX=1;entryY=0.25;entryDx=0;entryDy=0;" edge="1" parent="1" source="Mb1Wl-EeVpBNZaoq5JLc-1" target="Mb1Wl-EeVpBNZaoq5JLc-1">
          <mxGeometry width="50" height="50" relative="1" as="geometry">
            <mxPoint x="180" y="250" as="sourcePoint" />
            <mxPoint x="230" y="200" as="targetPoint" />
          </mxGeometry>
        </mxCell>
        <mxCell id="Mb1Wl-EeVpBNZaoq5JLc-6" value="PK" style="text;html=1;strokeColor=none;fillColor=none;align=center;verticalAlign=middle;whiteSpace=wrap;rounded=0;shadow=0;sketch=0;fontSize=20;" vertex="1" parent="1">
          <mxGeometry x="100" y="160" width="70" height="40" as="geometry" />
        </mxCell>
        <mxCell id="Mb1Wl-EeVpBNZaoq5JLc-7" value="" style="endArrow=none;html=1;rounded=0;fontSize=20;" edge="1" parent="1">
          <mxGeometry width="50" height="50" relative="1" as="geometry">
            <mxPoint x="170" y="200" as="sourcePoint" />
            <mxPoint x="170" y="160" as="targetPoint" />
          </mxGeometry>
        </mxCell>
        <mxCell id="Mb1Wl-EeVpBNZaoq5JLc-8" value="username String NOT NULL" style="text;html=1;strokeColor=none;fillColor=none;align=center;verticalAlign=middle;whiteSpace=wrap;rounded=0;shadow=0;sketch=0;fontSize=20;" vertex="1" parent="1">
          <mxGeometry x="180" y="210" width="290" height="30" as="geometry" />
        </mxCell>
        <mxCell id="Mb1Wl-EeVpBNZaoq5JLc-9" value="password String NOT NULL" style="text;html=1;strokeColor=none;fillColor=none;align=center;verticalAlign=middle;whiteSpace=wrap;rounded=0;shadow=0;sketch=0;fontSize=20;" vertex="1" parent="1">
          <mxGeometry x="195" y="240" width="260" height="30" as="geometry" />
        </mxCell>
        <mxCell id="Mb1Wl-EeVpBNZaoq5JLc-10" value="fullname String NOT NULL" style="text;html=1;strokeColor=none;fillColor=none;align=center;verticalAlign=middle;whiteSpace=wrap;rounded=0;shadow=0;sketch=0;fontSize=20;" vertex="1" parent="1">
          <mxGeometry x="200" y="270" width="240" height="30" as="geometry" />
        </mxCell>
        <mxCell id="Mb1Wl-EeVpBNZaoq5JLc-11" value="sex String NOT NULL" style="text;html=1;strokeColor=none;fillColor=none;align=center;verticalAlign=middle;whiteSpace=wrap;rounded=0;shadow=0;sketch=0;fontSize=20;" vertex="1" parent="1">
          <mxGeometry x="195" y="300" width="200" height="30" as="geometry" />
        </mxCell>
        <mxCell id="Mb1Wl-EeVpBNZaoq5JLc-12" value="email String NOT NULL" style="text;html=1;strokeColor=none;fillColor=none;align=center;verticalAlign=middle;whiteSpace=wrap;rounded=0;shadow=0;sketch=0;fontSize=20;" vertex="1" parent="1">
          <mxGeometry x="195" y="330" width="220" height="30" as="geometry" />
        </mxCell>
        <mxCell id="Mb1Wl-EeVpBNZaoq5JLc-14" value="promodoDone Number default 0" style="text;html=1;strokeColor=none;fillColor=none;align=center;verticalAlign=middle;whiteSpace=wrap;rounded=0;shadow=0;sketch=0;fontSize=20;" vertex="1" parent="1">
          <mxGeometry x="195" y="360" width="290" height="30" as="geometry" />
        </mxCell>
        <mxCell id="Mb1Wl-EeVpBNZaoq5JLc-15" value="promodoTime Number default 25" style="text;html=1;strokeColor=none;fillColor=none;align=center;verticalAlign=middle;whiteSpace=wrap;rounded=0;shadow=0;sketch=0;fontSize=20;" vertex="1" parent="1">
          <mxGeometry x="195" y="390" width="300" height="30" as="geometry" />
        </mxCell>
        <mxCell id="Mb1Wl-EeVpBNZaoq5JLc-16" value="breakTime Number default 5" style="text;html=1;strokeColor=none;fillColor=none;align=center;verticalAlign=middle;whiteSpace=wrap;rounded=0;shadow=0;sketch=0;fontSize=20;" vertex="1" parent="1">
          <mxGeometry x="195" y="420" width="260" height="30" as="geometry" />
        </mxCell>
        <mxCell id="Mb1Wl-EeVpBNZaoq5JLc-17" value="avater String" style="text;html=1;strokeColor=none;fillColor=none;align=center;verticalAlign=middle;whiteSpace=wrap;rounded=0;shadow=0;sketch=0;fontSize=20;" vertex="1" parent="1">
          <mxGeometry x="195" y="450" width="120" height="30" as="geometry" />
        </mxCell>
        <mxCell id="Mb1Wl-EeVpBNZaoq5JLc-18" value="" style="rounded=1;whiteSpace=wrap;html=1;" vertex="1" parent="1">
          <mxGeometry x="620" y="180" width="410" height="230" as="geometry" />
        </mxCell>
        <mxCell id="Mb1Wl-EeVpBNZaoq5JLc-20" value="" style="endArrow=none;html=1;rounded=0;fontSize=20;exitX=0;exitY=0.25;exitDx=0;exitDy=0;entryX=1;entryY=0.25;entryDx=0;entryDy=0;" edge="1" parent="1" source="Mb1Wl-EeVpBNZaoq5JLc-18" target="Mb1Wl-EeVpBNZaoq5JLc-18">
          <mxGeometry width="50" height="50" relative="1" as="geometry">
            <mxPoint x="660" y="190" as="sourcePoint" />
            <mxPoint x="710" y="140" as="targetPoint" />
          </mxGeometry>
        </mxCell>
        <mxCell id="Mb1Wl-EeVpBNZaoq5JLc-21" value="&lt;p style=&quot;line-height: 10 ; font-size: 20px&quot;&gt;FriendList&lt;/p&gt;" style="text;html=1;strokeColor=none;fillColor=none;align=center;verticalAlign=middle;whiteSpace=wrap;rounded=0;strokeWidth=2;sketch=0;shadow=0;fontStyle=1;fontSize=20;" vertex="1" parent="1">
          <mxGeometry x="782.5" y="190" width="85" height="40" as="geometry" />
        </mxCell>
        <mxCell id="Mb1Wl-EeVpBNZaoq5JLc-22" value="PK" style="text;html=1;strokeColor=none;fillColor=none;align=center;verticalAlign=middle;whiteSpace=wrap;rounded=0;shadow=0;sketch=0;fontSize=20;" vertex="1" parent="1">
          <mxGeometry x="630" y="240" width="70" height="40" as="geometry" />
        </mxCell>
        <mxCell id="Mb1Wl-EeVpBNZaoq5JLc-23" value="" style="endArrow=none;html=1;rounded=0;fontSize=20;entryX=1.005;entryY=0.429;entryDx=0;entryDy=0;entryPerimeter=0;exitX=-0.002;exitY=0.431;exitDx=0;exitDy=0;exitPerimeter=0;" edge="1" parent="1" source="Mb1Wl-EeVpBNZaoq5JLc-18" target="Mb1Wl-EeVpBNZaoq5JLc-18">
          <mxGeometry width="50" height="50" relative="1" as="geometry">
            <mxPoint x="640" y="260" as="sourcePoint" />
            <mxPoint x="690" y="210" as="targetPoint" />
          </mxGeometry>
        </mxCell>
        <mxCell id="Mb1Wl-EeVpBNZaoq5JLc-25" value="userId String NOT NULL" style="text;html=1;strokeColor=none;fillColor=none;align=center;verticalAlign=middle;whiteSpace=wrap;rounded=0;shadow=0;sketch=0;fontSize=20;" vertex="1" parent="1">
          <mxGeometry x="700" y="285" width="230" height="30" as="geometry" />
        </mxCell>
        <mxCell id="Mb1Wl-EeVpBNZaoq5JLc-26" value="friendList String" style="text;html=1;strokeColor=none;fillColor=none;align=center;verticalAlign=middle;whiteSpace=wrap;rounded=0;shadow=0;sketch=0;fontSize=20;" vertex="1" parent="1">
          <mxGeometry x="700" y="315" width="150" height="30" as="geometry" />
        </mxCell>
        <mxCell id="Mb1Wl-EeVpBNZaoq5JLc-28" value="" style="endArrow=none;html=1;rounded=0;fontSize=20;" edge="1" parent="1">
          <mxGeometry width="50" height="50" relative="1" as="geometry">
            <mxPoint x="700" y="280" as="sourcePoint" />
            <mxPoint x="700" y="240" as="targetPoint" />
          </mxGeometry>
        </mxCell>
        <mxCell id="Mb1Wl-EeVpBNZaoq5JLc-29" value="" style="rounded=1;whiteSpace=wrap;html=1;" vertex="1" parent="1">
          <mxGeometry x="70" y="540" width="415" height="290" as="geometry" />
        </mxCell>
        <mxCell id="Mb1Wl-EeVpBNZaoq5JLc-30" value="&lt;p style=&quot;line-height: 10 ; font-size: 20px&quot;&gt;Hobby&lt;/p&gt;" style="text;html=1;strokeColor=none;fillColor=none;align=center;verticalAlign=middle;whiteSpace=wrap;rounded=0;strokeWidth=2;sketch=0;shadow=0;fontStyle=1;fontSize=20;" vertex="1" parent="1">
          <mxGeometry x="237.5" y="540" width="85" height="70" as="geometry" />
        </mxCell>
        <mxCell id="Mb1Wl-EeVpBNZaoq5JLc-31" value="" style="endArrow=none;html=1;rounded=0;fontSize=20;entryX=1;entryY=0.25;entryDx=0;entryDy=0;exitX=0;exitY=0.25;exitDx=0;exitDy=0;" edge="1" parent="1" source="Mb1Wl-EeVpBNZaoq5JLc-29" target="Mb1Wl-EeVpBNZaoq5JLc-29">
          <mxGeometry width="50" height="50" relative="1" as="geometry">
            <mxPoint x="250" y="710" as="sourcePoint" />
            <mxPoint x="300" y="660" as="targetPoint" />
          </mxGeometry>
        </mxCell>
        <mxCell id="Mb1Wl-EeVpBNZaoq5JLc-32" value="PK" style="text;html=1;strokeColor=none;fillColor=none;align=center;verticalAlign=middle;whiteSpace=wrap;rounded=0;shadow=0;sketch=0;fontSize=20;" vertex="1" parent="1">
          <mxGeometry x="70" y="610" width="70" height="40" as="geometry" />
        </mxCell>
        <mxCell id="Mb1Wl-EeVpBNZaoq5JLc-33" value="" style="endArrow=none;html=1;rounded=0;fontSize=20;entryX=1;entryY=0.382;entryDx=0;entryDy=0;entryPerimeter=0;exitX=0;exitY=0.378;exitDx=0;exitDy=0;exitPerimeter=0;" edge="1" parent="1" source="Mb1Wl-EeVpBNZaoq5JLc-29" target="Mb1Wl-EeVpBNZaoq5JLc-29">
          <mxGeometry width="50" height="50" relative="1" as="geometry">
            <mxPoint x="340" y="710" as="sourcePoint" />
            <mxPoint x="390" y="660" as="targetPoint" />
          </mxGeometry>
        </mxCell>
        <mxCell id="Mb1Wl-EeVpBNZaoq5JLc-34" value="" style="endArrow=none;html=1;rounded=0;fontSize=20;" edge="1" parent="1">
          <mxGeometry width="50" height="50" relative="1" as="geometry">
            <mxPoint x="150" y="650" as="sourcePoint" />
            <mxPoint x="150" y="610" as="targetPoint" />
          </mxGeometry>
        </mxCell>
        <mxCell id="Mb1Wl-EeVpBNZaoq5JLc-35" value="userId String NOT NULL" style="text;html=1;strokeColor=none;fillColor=none;align=center;verticalAlign=middle;whiteSpace=wrap;rounded=0;shadow=0;sketch=0;fontSize=20;" vertex="1" parent="1">
          <mxGeometry x="155" y="660" width="230" height="30" as="geometry" />
        </mxCell>
        <mxCell id="Mb1Wl-EeVpBNZaoq5JLc-36" value="name String NOT NULL" style="text;html=1;strokeColor=none;fillColor=none;align=center;verticalAlign=middle;whiteSpace=wrap;rounded=0;shadow=0;sketch=0;fontSize=20;" vertex="1" parent="1">
          <mxGeometry x="155" y="690" width="225" height="30" as="geometry" />
        </mxCell>
        <mxCell id="Mb1Wl-EeVpBNZaoq5JLc-37" style="edgeStyle=orthogonalEdgeStyle;rounded=0;orthogonalLoop=1;jettySize=auto;html=1;exitX=0.5;exitY=1;exitDx=0;exitDy=0;fontSize=20;" edge="1" parent="1" source="Mb1Wl-EeVpBNZaoq5JLc-36" target="Mb1Wl-EeVpBNZaoq5JLc-36">
          <mxGeometry relative="1" as="geometry" />
        </mxCell>
        <mxCell id="Mb1Wl-EeVpBNZaoq5JLc-38" value="desc String NOT NULL" style="text;html=1;strokeColor=none;fillColor=none;align=center;verticalAlign=middle;whiteSpace=wrap;rounded=0;shadow=0;sketch=0;fontSize=20;" vertex="1" parent="1">
          <mxGeometry x="155" y="720" width="215" height="30" as="geometry" />
        </mxCell>
        <mxCell id="Mb1Wl-EeVpBNZaoq5JLc-39" value="timeLimit Number default 30" style="text;html=1;strokeColor=none;fillColor=none;align=center;verticalAlign=middle;whiteSpace=wrap;rounded=0;shadow=0;sketch=0;fontSize=20;" vertex="1" parent="1">
          <mxGeometry x="155" y="750" width="255" height="30" as="geometry" />
        </mxCell>
        <mxCell id="Mb1Wl-EeVpBNZaoq5JLc-40" value="" style="rounded=1;whiteSpace=wrap;html=1;" vertex="1" parent="1">
          <mxGeometry x="610" y="510" width="470" height="290" as="geometry" />
        </mxCell>
        <mxCell id="Mb1Wl-EeVpBNZaoq5JLc-41" value="&lt;p style=&quot;line-height: 10 ; font-size: 20px&quot;&gt;Setting&lt;/p&gt;" style="text;html=1;strokeColor=none;fillColor=none;align=center;verticalAlign=middle;whiteSpace=wrap;rounded=0;strokeWidth=2;sketch=0;shadow=0;fontStyle=1;fontSize=20;" vertex="1" parent="1">
          <mxGeometry x="792.5" y="510" width="85" height="70" as="geometry" />
        </mxCell>
        <mxCell id="Mb1Wl-EeVpBNZaoq5JLc-42" value="" style="endArrow=none;html=1;rounded=0;fontSize=20;exitX=0;exitY=0.25;exitDx=0;exitDy=0;entryX=1;entryY=0.25;entryDx=0;entryDy=0;" edge="1" parent="1" source="Mb1Wl-EeVpBNZaoq5JLc-40" target="Mb1Wl-EeVpBNZaoq5JLc-40">
          <mxGeometry width="50" height="50" relative="1" as="geometry">
            <mxPoint x="650" y="650" as="sourcePoint" />
            <mxPoint x="700" y="600" as="targetPoint" />
          </mxGeometry>
        </mxCell>
        <mxCell id="Mb1Wl-EeVpBNZaoq5JLc-43" value="PK" style="text;html=1;strokeColor=none;fillColor=none;align=center;verticalAlign=middle;whiteSpace=wrap;rounded=0;shadow=0;sketch=0;fontSize=20;" vertex="1" parent="1">
          <mxGeometry x="610" y="580" width="70" height="40" as="geometry" />
        </mxCell>
        <mxCell id="Mb1Wl-EeVpBNZaoq5JLc-44" value="" style="endArrow=none;html=1;rounded=0;fontSize=20;exitX=0;exitY=0.382;exitDx=0;exitDy=0;exitPerimeter=0;entryX=1.003;entryY=0.382;entryDx=0;entryDy=0;entryPerimeter=0;" edge="1" parent="1" source="Mb1Wl-EeVpBNZaoq5JLc-40" target="Mb1Wl-EeVpBNZaoq5JLc-40">
          <mxGeometry width="50" height="50" relative="1" as="geometry">
            <mxPoint x="760" y="700" as="sourcePoint" />
            <mxPoint x="1030" y="630" as="targetPoint" />
          </mxGeometry>
        </mxCell>
        <mxCell id="Mb1Wl-EeVpBNZaoq5JLc-45" value="" style="endArrow=none;html=1;rounded=0;fontSize=20;" edge="1" parent="1">
          <mxGeometry width="50" height="50" relative="1" as="geometry">
            <mxPoint x="690" y="620" as="sourcePoint" />
            <mxPoint x="690" y="580" as="targetPoint" />
          </mxGeometry>
        </mxCell>
        <mxCell id="Mb1Wl-EeVpBNZaoq5JLc-46" value="userId String NOT NULL" style="text;html=1;strokeColor=none;fillColor=none;align=center;verticalAlign=middle;whiteSpace=wrap;rounded=0;shadow=0;sketch=0;fontSize=20;" vertex="1" parent="1">
          <mxGeometry x="690" y="630" width="230" height="30" as="geometry" />
        </mxCell>
        <mxCell id="Mb1Wl-EeVpBNZaoq5JLc-47" value="promodo Number NOT NULL default 25" style="text;html=1;strokeColor=none;fillColor=none;align=center;verticalAlign=middle;whiteSpace=wrap;rounded=0;shadow=0;sketch=0;fontSize=20;" vertex="1" parent="1">
          <mxGeometry x="690" y="670" width="370" height="30" as="geometry" />
        </mxCell>
        <mxCell id="Mb1Wl-EeVpBNZaoq5JLc-48" value="breakTime Number NOT NULL default 5" style="text;html=1;strokeColor=none;fillColor=none;align=center;verticalAlign=middle;whiteSpace=wrap;rounded=0;shadow=0;sketch=0;fontSize=20;" vertex="1" parent="1">
          <mxGeometry x="690" y="700" width="370" height="30" as="geometry" />
        </mxCell>
        <mxCell id="Mb1Wl-EeVpBNZaoq5JLc-49" value="" style="rounded=1;whiteSpace=wrap;html=1;" vertex="1" parent="1">
          <mxGeometry x="1370" y="140" width="510" height="500" as="geometry" />
        </mxCell>
        <mxCell id="Mb1Wl-EeVpBNZaoq5JLc-50" value="&lt;p style=&quot;line-height: 10 ; font-size: 20px&quot;&gt;Task&lt;/p&gt;" style="text;html=1;strokeColor=none;fillColor=none;align=center;verticalAlign=middle;whiteSpace=wrap;rounded=0;strokeWidth=2;sketch=0;shadow=0;fontStyle=1;fontSize=20;" vertex="1" parent="1">
          <mxGeometry x="1582.5" y="150" width="85" height="70" as="geometry" />
        </mxCell>
        <mxCell id="Mb1Wl-EeVpBNZaoq5JLc-51" value="" style="endArrow=none;html=1;rounded=0;fontSize=20;entryX=1.005;entryY=0.148;entryDx=0;entryDy=0;entryPerimeter=0;exitX=-0.004;exitY=0.148;exitDx=0;exitDy=0;exitPerimeter=0;" edge="1" parent="1" source="Mb1Wl-EeVpBNZaoq5JLc-49" target="Mb1Wl-EeVpBNZaoq5JLc-49">
          <mxGeometry width="50" height="50" relative="1" as="geometry">
            <mxPoint x="1580" y="300" as="sourcePoint" />
            <mxPoint x="1630" y="250" as="targetPoint" />
          </mxGeometry>
        </mxCell>
        <mxCell id="Mb1Wl-EeVpBNZaoq5JLc-52" value="PK" style="text;html=1;strokeColor=none;fillColor=none;align=center;verticalAlign=middle;whiteSpace=wrap;rounded=0;shadow=0;sketch=0;fontSize=20;" vertex="1" parent="1">
          <mxGeometry x="1390" y="220" width="70" height="40" as="geometry" />
        </mxCell>
        <mxCell id="Mb1Wl-EeVpBNZaoq5JLc-53" value="" style="endArrow=none;html=1;rounded=0;fontSize=20;entryX=1;entryY=0.25;entryDx=0;entryDy=0;exitX=0;exitY=0.25;exitDx=0;exitDy=0;" edge="1" parent="1" source="Mb1Wl-EeVpBNZaoq5JLc-49" target="Mb1Wl-EeVpBNZaoq5JLc-49">
          <mxGeometry width="50" height="50" relative="1" as="geometry">
            <mxPoint x="1680" y="340" as="sourcePoint" />
            <mxPoint x="1730" y="290" as="targetPoint" />
          </mxGeometry>
        </mxCell>
        <mxCell id="Mb1Wl-EeVpBNZaoq5JLc-54" value="" style="endArrow=none;html=1;rounded=0;fontSize=20;" edge="1" parent="1">
          <mxGeometry width="50" height="50" relative="1" as="geometry">
            <mxPoint x="1480" y="270" as="sourcePoint" />
            <mxPoint x="1480" y="220" as="targetPoint" />
          </mxGeometry>
        </mxCell>
        <mxCell id="Mb1Wl-EeVpBNZaoq5JLc-56" value="userId String NOT NULL" style="text;html=1;strokeColor=none;fillColor=none;align=center;verticalAlign=middle;whiteSpace=wrap;rounded=0;shadow=0;sketch=0;fontSize=20;" vertex="1" parent="1">
          <mxGeometry x="1490" y="285" width="230" height="30" as="geometry" />
        </mxCell>
        <mxCell id="Mb1Wl-EeVpBNZaoq5JLc-57" value="taskname String NOT NULL" style="text;html=1;strokeColor=none;fillColor=none;align=center;verticalAlign=middle;whiteSpace=wrap;rounded=0;shadow=0;sketch=0;fontSize=20;" vertex="1" parent="1">
          <mxGeometry x="1490" y="315" width="260" height="30" as="geometry" />
        </mxCell>
        <mxCell id="Mb1Wl-EeVpBNZaoq5JLc-58" value="deadline String NOT NULL" style="text;html=1;strokeColor=none;fillColor=none;align=center;verticalAlign=middle;whiteSpace=wrap;rounded=0;shadow=0;sketch=0;fontSize=20;" vertex="1" parent="1">
          <mxGeometry x="1490" y="345" width="250" height="30" as="geometry" />
        </mxCell>
        <mxCell id="Mb1Wl-EeVpBNZaoq5JLc-59" value="totalTime Number NOT NULL" style="text;html=1;strokeColor=none;fillColor=none;align=center;verticalAlign=middle;whiteSpace=wrap;rounded=0;shadow=0;sketch=0;fontSize=20;" vertex="1" parent="1">
          <mxGeometry x="1490" y="375" width="270" height="30" as="geometry" />
        </mxCell>
        <mxCell id="Mb1Wl-EeVpBNZaoq5JLc-60" value="importantRate Number NOT NULL" style="text;html=1;strokeColor=none;fillColor=none;align=center;verticalAlign=middle;whiteSpace=wrap;rounded=0;shadow=0;sketch=0;fontSize=20;" vertex="1" parent="1">
          <mxGeometry x="1490" y="405" width="320" height="30" as="geometry" />
        </mxCell>
        <mxCell id="Mb1Wl-EeVpBNZaoq5JLc-61" value="description String NOT NULL" style="text;html=1;strokeColor=none;fillColor=none;align=center;verticalAlign=middle;whiteSpace=wrap;rounded=0;shadow=0;sketch=0;fontSize=20;" vertex="1" parent="1">
          <mxGeometry x="1490" y="435" width="270" height="30" as="geometry" />
        </mxCell>
        <mxCell id="Mb1Wl-EeVpBNZaoq5JLc-62" value="promodoPeriod Number default 0" style="text;html=1;strokeColor=none;fillColor=none;align=center;verticalAlign=middle;whiteSpace=wrap;rounded=0;shadow=0;sketch=0;fontSize=20;" vertex="1" parent="1">
          <mxGeometry x="1490" y="469" width="300" height="30" as="geometry" />
        </mxCell>
        <mxCell id="Mb1Wl-EeVpBNZaoq5JLc-63" value="done Number default 0" style="text;html=1;strokeColor=none;fillColor=none;align=center;verticalAlign=middle;whiteSpace=wrap;rounded=0;shadow=0;sketch=0;fontSize=20;" vertex="1" parent="1">
          <mxGeometry x="1490" y="500" width="210" height="30" as="geometry" />
        </mxCell>
        <mxCell id="Mb1Wl-EeVpBNZaoq5JLc-64" value="startDay String default new Date()" style="text;html=1;strokeColor=none;fillColor=none;align=center;verticalAlign=middle;whiteSpace=wrap;rounded=0;shadow=0;sketch=0;fontSize=20;" vertex="1" parent="1">
          <mxGeometry x="1490" y="530" width="310" height="30" as="geometry" />
        </mxCell>
        <mxCell id="Mb1Wl-EeVpBNZaoq5JLc-65" value="endDay String default new Date()" style="text;html=1;strokeColor=none;fillColor=none;align=center;verticalAlign=middle;whiteSpace=wrap;rounded=0;shadow=0;sketch=0;fontSize=20;" vertex="1" parent="1">
          <mxGeometry x="1490" y="560" width="300" height="30" as="geometry" />
        </mxCell>
        <mxCell id="Mb1Wl-EeVpBNZaoq5JLc-66" value="taskPerDay Number default 0" style="text;html=1;strokeColor=none;fillColor=none;align=center;verticalAlign=middle;whiteSpace=wrap;rounded=0;shadow=0;sketch=0;fontSize=20;" vertex="1" parent="1">
          <mxGeometry x="1490" y="590" width="270" height="30" as="geometry" />
        </mxCell>
      </root>
    </mxGraphModel>
  </diagram>
</mxfile>
